# xmcd database file
#
# Track frame offsets:
# 150
# 14493
# 27637
# 40288
# 52593
# 66110
# 80337
# 93631
# 109586
# 121713
# 134768
# 150868
# 163915
# 177929
#
# Disc length: 2544 seconds
#
# Revision: 2
# Processed by: cddbd v1.5.2PL0 Copyright (c) Steve Scherf et al.
# Submitted via: CD-Runner 2011.01
#
DISCID=b009ee0e
DTITLE=The Very Best Of Margo Smith - Margo Smith
DYEAR=2015
DGENRE=Country
TTITLE0=01 Save All Your Kisses For Me
TTITLE1=02 Take My Breath Away
TTITLE2=03 Love's Explosion
TTITLE3=04 My Weakness
TTITLE4=05 Don't Break The Heart
TTITLE5=06 It Only Hurts For A Little While
TTITLE6=07 Little Things Mean A Lot
TTITLE7=08 Still A Woman
TTITLE8=09 If I Give My Heart To You
TTITLE9=10 Baby My Baby
TTITLE10=11 The Shuffle Song
TTITLE11=12 My Guy
TTITLE12=13 Cup Of Tea (w Rex Allen, Jr.)
TTITLE13=14 While The Feeling 's Good (w Rex Allen, Jr.
EXTD=
EXTT0=
EXTT1=
EXTT2=
EXTT3=
EXTT4=
EXTT5=
EXTT6=
EXTT7=
EXTT8=
EXTT9=
EXTT10=
EXTT11=
EXTT12=
EXTT13=
PLAYORDER=
